<svg id="Capa_1" enable-background="new 0 0 512 512" height="512" viewBox="0 0 512 512" width="512" xmlns="http://www.w3.org/2000/svg"><g><g><g><path d="m199.725 4.938c-75.002 0-135.803 60.801-135.803 135.803v238.243h271.606v-238.243c0-75.002-60.801-135.803-135.803-135.803z" fill="#784033"/></g><g><path d="m199.725 4.938c-9.978 0-19.701 1.086-29.067 3.128 61.033 13.31 106.736 67.65 106.736 132.674v238.243h58.133v-238.242c.001-75.002-60.8-135.803-135.802-135.803z" fill="#61362b"/></g><g><path d="m396.318 455.327h-391.318c-2.761 0-5-2.239-5-5v-16.742c0-82.843 67.157-150 150-150h101.318c82.843 0 150 67.157 150 150v16.742c0 2.762-2.239 5-5 5z" fill="#5766cb"/></g><path d="m251.318 283.585h-101.318c-3.964 0-7.892.157-11.779.458 77.337 6.008 138.221 70.663 138.221 149.542v16.742c0 2.761-2.239 5-5 5h124.875c2.761 0 5-2.239 5-5v-16.742c.001-82.843-67.156-150-149.999-150z" fill="#3d4fc3"/><g><path d="m211.292 343.98h-21.266c-30.625 0-55.451-24.826-55.451-55.451v-54.044h132.168v54.044c0 30.625-24.826 55.451-55.451 55.451z" fill="#eaac9d"/></g><path d="m228.118 234.485v54.044c0 27.671-20.271 50.604-46.771 54.77 2.829.445 5.726.681 8.68.681h21.266c30.625 0 55.451-24.826 55.451-55.451v-54.044z" fill="#df9380"/><g><path d="m294.857 89.152h-188.396v89.547c0 33.15 16.502 64.125 44.015 82.617l27.375 18.4c2.784 1.871 5.74 3.364 8.799 4.48l21.912-2.338 19.555-5.269 22.724-15.274c27.513-18.492 44.015-49.467 44.015-82.617v-89.546z" fill="#ffcbbe"/></g><g><path d="m266.853 89.152v89.547c0 33.15-16.502 64.125-44.015 82.617l-27.375 18.4c-2.784 1.871-5.753 3.364-8.813 4.48 12.098 4.412 25.808 2.919 36.816-4.48l27.375-18.4c27.513-18.492 44.015-49.467 44.015-82.617v-89.547z" fill="#eaac9d"/></g><g><circle cx="155.252" cy="159.66" fill="#5766cb" r="11.388"/></g><g><circle cx="244.091" cy="159.66" fill="#5766cb" r="11.388"/></g><g><path d="m199.671 234.485c-13.019 0-25.213-6.41-32.616-17.146-2.332-3.382-1.482-8.014 1.9-10.347s8.014-1.481 10.346 1.901c4.627 6.709 12.242 10.714 20.37 10.714s15.744-4.006 20.371-10.714c2.332-3.381 6.964-4.234 10.346-1.901s4.233 6.965 1.9 10.347c-7.403 10.737-19.597 17.146-32.617 17.146z" fill="#dd636e"/></g><g><path d="m199.725 4.938c-62.309 0-114.812 41.966-130.799 99.173 15.854 8.01 34.193 12.604 53.753 12.604 28.963 0 55.278-10.035 74.758-26.391 1.319-1.107 3.257-1.107 4.576 0 19.48 16.356 45.795 26.391 74.758 26.391 19.56 0 37.899-4.594 53.753-12.604-15.987-57.207-68.49-99.173-130.799-99.173z" fill="#784033"/></g><g><g><path d="m199.725 4.938c-8.957 0-17.709.871-26.18 2.526 40.766 7.963 75.005 34.162 93.877 69.759 7.81 14.732-.307 32.993-16.585 36.605-.098.022-.196.043-.294.065 8.4 1.844 17.185 2.822 26.228 2.822 19.56 0 37.899-4.594 53.753-12.604-15.987-57.207-68.49-99.173-130.799-99.173z" fill="#61362b"/></g></g></g><g><g><path d="m509.571 429.542-105.504-105.504c-3.139-3.139-7.3-5.049-11.728-5.381l-64.713-4.86c-5.06-.38-9.271 3.832-8.891 8.891l4.86 64.713c.332 4.427 2.242 8.588 5.381 11.728l105.504 105.504c3.239 3.239 8.49 3.239 11.729 0l63.362-63.362c3.239-3.239 3.239-8.49 0-11.729zm-152.242-64.776c-7.029 0-12.727-5.698-12.727-12.727s5.698-12.727 12.727-12.727 12.727 5.698 12.727 12.727-5.698 12.727-12.727 12.727z" fill="#dd636e"/></g><g><g><path d="m509.571 429.542-105.504-105.504c-3.139-3.139-7.3-5.049-11.728-5.381l-29.163-2.19 104.71 105.823c7.244 7.244 7.244 18.989 0 26.233l-44.758 44.758 11.352 11.352c3.239 3.239 8.49 3.239 11.729 0l63.362-63.362c3.239-3.239 3.239-8.49 0-11.729z" fill="#d82e3d"/></g></g><g><path d="m210.43 491.493c-13.447 0-26.464-4.819-36.653-13.569-3.117-2.676-3.474-7.373-.798-10.489 2.677-3.119 7.374-3.474 10.49-.798 7.494 6.435 17.069 9.978 26.962 9.978 22.835 0 41.412-18.577 41.412-41.411v-35.315c0-31.037 25.251-56.288 56.288-56.288h36.472c4.109 0 7.439 3.33 7.439 7.439s-3.33 7.439-7.439 7.439h-36.473c-22.834 0-41.411 18.577-41.411 41.411v35.315c0 31.037-25.251 56.288-56.289 56.288z" fill="#a71f29"/></g></g></g></svg>