<svg height="512pt" viewBox="0 0 512 512" width="512pt" xmlns="http://www.w3.org/2000/svg"><path d="m416 512h-320c-53.023438 0-96-42.976562-96-96v-320c0-53.023438 42.976562-96 96-96h320c53.023438 0 96 42.976562 96 96v320c0 53.023438-42.976562 96-96 96zm0 0" fill="#f5e6fe"/><path d="m333.328125 128h-154.671875c-16.175781 0-29.328125 13.152344-29.328125 29.328125v197.328125c0 16.175781 13.152344 29.328125 29.328125 29.328125h154.671875c16.175781 0 29.328125-13.152344 29.328125-29.328125v-197.328125c.015625-16.175781-13.152344-29.328125-29.328125-29.328125zm-133.328125 197.328125h8v-3.121094c-3.105469-1.085937-5.328125-4.0625-5.328125-7.535156 0-4.414063 3.585937-8 8-8h5.328125c4.414062 0 8 3.585937 8 8v18.671875c0 4.417969-3.585938 8-8 8h-16c-10.289062 0-18.671875-8.367188-18.671875-18.671875v-26.671875c0-10.289062 8.367187-18.671875 18.671875-18.671875h16c4.414062 0 8 3.582031 8 8 0 4.414063-3.585938 8-8 8h-16c-1.472656 0-2.671875 1.199219-2.671875 2.671875v26.671875c0 1.457031 1.199219 2.65625 2.671875 2.65625zm58.671875 8c0 4.414063-3.582031 8-8 8-4.414063 0-8-3.585937-8-8v-48c0-4.417969 3.585937-8 8-8 4.417969 0 8 3.582031 8 8zm53.328125-29.328125c4.414062 0 8 3.585938 8 8s-3.585938 8-8 8h-21.328125v13.328125c0 4.414063-3.582031 8-8 8-4.414063 0-8-3.585937-8-8v-37.328125c0-10.289062 8.367187-18.671875 18.671875-18.671875h18.65625c4.414062 0 8 3.582031 8 8 0 4.414063-3.585938 8-8 8h-18.671875c-1.472656 0-2.671875 1.199219-2.671875 2.671875v8zm0 0" fill="#be63f9"/></svg>