<svg id="Layer_4" enable-background="new 0 0 24 24" height="512" viewBox="0 0 24 24" width="512" xmlns="http://www.w3.org/2000/svg"><path d="m24 1v22c0 .55-.45 1-1 1h-22c-.55 0-1-.45-1-1v-22c0-.55.45-1 1-1h22c.55 0 1 .45 1 1z" fill="#90caf9"/><path d="m12 0h-11c-.55 0-1 .45-1 1v22c0 .55.45 1 1 1h11-11c-.55 0-1-.45-1-1v-4.58l.26-.229c.14-.131 3.68-3.191 7.83-3.191 1.245 0 2.525.354 3.91.857z" fill="#7db0d9"/><path d="m24 16.72v4.03h-12.44c-.41 0-.75-.34-.75-.75v-2c0-.24.12-.47.31-.61 1-.72 3.66-2.39 6.75-2.39 1.86 0 3.8.78 6.05 1.69z" fill="#689f38"/><path d="m24 18.97v4.03c0 .55-.45 1-1 1h-22c-.55 0-1-.45-1-1v-4.58l.26-.229c.14-.131 3.68-3.191 7.83-3.191 1.86 0 3.8.79 6.05 1.69 2.87 1.17 6.12 2.49 9.86 2.28z" fill="#8bc34a"/><path d="m8.09 15c-4.15 0-7.69 3.06-7.83 3.19l-.26.23v4.58c0 .55.45 1 1 1h11v-8.142c-1.385-.504-2.666-.858-3.91-.858z" fill="#79aa40"/><path d="m9 7c0 .55-.45 1-1 1h-3c-.55 0-1-.45-1-1s.45-1 1-1l.09.01c.19-.59.75-1.01 1.41-1.01s1.22.42 1.41 1.01l.09-.01c.55 0 1 .45 1 1z" fill="#fafafa"/><path d="m6.5 5c-.66 0-1.22.42-1.41 1.01l-.09-.01c-.55 0-1 .45-1 1s.45 1 1 1h1.5z" fill="#dadada"/></svg>